<svg width="112" height="51" viewBox="0 0 112 51" fill="none" xmlns="http://www.w3.org/2000/svg">
<path d="M26 9.25C25.8 10.6833 25.4167 11.9 24.85 12.9C24.2833 13.9 23.65 14.7667 22.95 15.5C22.2833 16.2333 21.6333 16.95 21 17.65C21.2333 17.95 21.4833 18.4 21.75 19C22.05 19.5667 22.2 20.4333 22.2 21.6C22.2 21.9333 22.1833 22.2833 22.15 22.65C22.1167 23.0167 22.0667 23.4333 22 23.9C21.9333 24.3333 21.7333 24.9833 21.4 25.85C21.1 26.7167 20.65 27.6833 20.05 28.75C19.45 29.8167 18.6667 30.8333 17.7 31.8C16.7333 32.7667 15.5667 33.5667 14.2 34.2C12.8667 34.8333 11.2833 35.15 9.45 35.15C8.28333 35.15 7.45 34.9167 6.95 34.45C6.45 34.0167 6.01667 33.6 5.65 33.2C5.55 33.1333 5.46667 33.05 5.4 32.95C5.33333 32.85 5.25 32.75 5.15 32.65C4.78333 33.1833 4.33333 33.6667 3.8 34.1C3.3 34.5333 2.73333 34.75 2.1 34.75C1.5 34.75 1.03333 34.5 0.7 34C0.366667 33.5 0.2 32.95 0.2 32.35C0.2 31.65 0.366667 30.9833 0.7 30.35C1.06667 29.7167 1.43333 29.3 1.8 29.1C1.96667 29 2.13333 28.9333 2.3 28.9C2.5 28.8667 2.66667 28.85 2.8 28.85C3.2 28.85 3.56667 28.9667 3.9 29.2C4.33333 29.5667 4.7 29.95 5 30.35C5.33333 29.3833 5.66667 28.3333 6 27.2C6.33333 26.0667 6.61667 25.05 6.85 24.15C7.11667 23.2167 7.28333 22.5833 7.35 22.25C7.21667 21.9833 7 21.6667 6.7 21.3C6.4 20.9 6.25 20.35 6.25 19.65C6.25 19.5167 6.25 19.3833 6.25 19.25C6.28333 19.0833 6.31667 18.9167 6.35 18.75C6.65 17.4167 7.13333 16.5167 7.8 16.05C8.5 15.55 9.1 15.1333 9.6 14.8C9.83333 13.5 10.0333 12.4833 10.2 11.75C10.3667 11.0167 10.5167 10.4167 10.65 9.95C10.8167 9.48333 10.9833 9 11.15 8.5C11.35 7.96667 11.6 7.26667 11.9 6.4C12.0667 6.3 12.2167 6.2 12.35 6.1C12.5167 6 12.65 5.95 12.75 5.95C12.95 5.95 13 6.15 12.9 6.55C12.7333 7.28333 12.5667 8.35 12.4 9.75C12.2333 11.15 12.0167 12.6 11.75 14.1C11.9167 14.0667 12.1167 14.05 12.35 14.05C12.5833 14.0167 12.8167 14 13.05 14C14.0167 14 15.1167 14.15 16.35 14.45C17.6167 14.75 18.7167 15.3 19.65 16.1C20.5167 15.1 21.2667 14.1 21.9 13.1C22.5333 12.1 23.0167 10.6667 23.35 8.8C23.3833 8.63333 23.4 8.48333 23.4 8.35C23.4333 8.18333 23.45 8.03333 23.45 7.9C23.45 6.7 23.0667 5.7 22.3 4.9C21.5667 4.1 20.6833 3.5 19.65 3.1C18.65 2.66666 17.7333 2.45 16.9 2.45C16.6667 2.45 16.2167 2.48333 15.55 2.55C14.9167 2.58333 14.1667 2.71667 13.3 2.95C12.4667 3.18333 11.6167 3.58333 10.75 4.15C9.88333 4.68333 9.11667 5.45 8.45 6.45C8.21667 6.85 7.96667 7.25 7.7 7.65C7.43333 8.01667 7.26667 8.55 7.2 9.25C7.2 9.45 7.26667 9.6 7.4 9.7C7.56667 9.76667 7.73333 9.78333 7.9 9.75C8.46667 9.61667 8.91667 9.3 9.25 8.8C9.31667 8.6 9.35 8.48333 9.35 8.45C9.35 8.28333 9.31667 8.13333 9.25 8C9.21667 7.83333 9.18333 7.68333 9.15 7.55V7.5C9.15 7.33333 9.2 7.18333 9.3 7.05C9.43333 6.88333 9.58333 6.8 9.75 6.8C9.95 6.8 10.15 6.93333 10.35 7.2C10.4167 7.33333 10.45 7.51667 10.45 7.75C10.45 8.11667 10.3833 8.53333 10.25 9C10.15 9.43333 10 9.73333 9.8 9.9C9.43333 10.2 9.03333 10.45 8.6 10.65C8.2 10.85 7.81667 10.95 7.45 10.95C7.08333 10.95 6.75 10.85 6.45 10.65C6.15 10.45 6 10.1 6 9.6C6 9.2 6.08333 8.76667 6.25 8.3C6.41667 7.83333 6.55 7.43333 6.65 7.1C6.91667 6.23333 7.56667 5.35 8.6 4.45C9.63333 3.55 10.9 2.78333 12.4 2.15C13.9333 1.51667 15.5333 1.2 17.2 1.2C18.9333 1.2 20.45 1.56667 21.75 2.3C23.0833 3 24.1333 3.91666 24.9 5.05C25.6667 6.15 26.05 7.3 26.05 8.5C26.05 8.63333 26.05 8.76666 26.05 8.9C26.05 9 26.0333 9.11667 26 9.25ZM18.4 17.1C17.6667 16.6333 17 16.2 16.4 15.8C15.8333 15.4 15.05 15.2 14.05 15.2C13.35 15.2 12.45 15.35 11.35 15.65C11.1167 16.7833 10.8833 17.7667 10.65 18.6C10.4167 19.4333 10.1667 20.35 9.9 21.35C9.9 21.35 9.96667 21.3667 10.1 21.4C10.2667 21.4 10.4667 21.4 10.7 21.4C11.0667 21.4 11.5167 21.3667 12.05 21.3C12.5833 21.2333 13.1 21.0833 13.6 20.85C15.0333 20.25 16.0333 19.65 16.6 19.05C17.2 18.4167 17.8 17.7667 18.4 17.1ZM9.2 16.55C8.93333 16.6833 8.63333 16.9333 8.3 17.3C7.96667 17.6667 7.66667 18.15 7.4 18.75C7.26667 19.05 7.28333 19.3833 7.45 19.75C7.65 20.1167 7.86667 20.4833 8.1 20.85C8.36667 19.85 8.58333 19.0167 8.75 18.35C8.95 17.6833 9.1 17.0833 9.2 16.55ZM19.4 24.25C19.5 23.8833 19.5833 23.4833 19.65 23.05C19.7167 22.5833 19.75 22.1333 19.75 21.7C19.75 21.2333 19.7 20.7833 19.6 20.35C19.5333 19.9167 19.4 19.55 19.2 19.25C18.3667 20.0167 17.4833 20.6667 16.55 21.2C15.6167 21.7 14.7333 22.05 13.9 22.25C12.7333 22.55 11.7833 22.7333 11.05 22.8C10.3167 22.8333 9.76667 22.8333 9.4 22.8C9.03333 23.8333 8.75 24.65 8.55 25.25C8.35 25.8167 8.16667 26.3333 8 26.8C7.86667 27.2333 7.68333 27.7667 7.45 28.4C7.41667 28.5333 7.23333 28.8833 6.9 29.45C6.6 29.9833 6.23333 30.65 5.8 31.45C6.26667 32.0833 6.78333 32.6333 7.35 33.1C7.91667 33.5333 8.76667 33.75 9.9 33.75C11.5 33.75 12.9167 33.3 14.15 32.4C15.4167 31.5 16.5 30.3333 17.4 28.9C18.3 27.4333 18.9667 25.8833 19.4 24.25ZM4.35 31.75C4.01667 31.3833 3.7 31.0833 3.4 30.85C3.1 30.6167 2.83333 30.5 2.6 30.5C2.4 30.5 2.25 30.5833 2.15 30.75C2.01667 30.8833 1.86667 31.1833 1.7 31.65C1.53333 32.0833 1.45 32.5 1.45 32.9C1.45 33.5333 1.66667 33.85 2.1 33.85C2.46667 33.85 2.76667 33.7167 3 33.45C3.23333 33.1833 3.53333 32.8833 3.9 32.55C3.9 32.55 3.95 32.4667 4.05 32.3C4.15 32.1 4.25 31.9167 4.35 31.75ZM41.6652 30.1C41.7652 30 41.8986 29.95 42.0652 29.95C42.2986 29.95 42.4152 30.0667 42.4152 30.3C42.4152 30.4333 42.3319 30.6333 42.1652 30.9C42.0319 31.1667 41.7319 31.4833 41.2652 31.85C40.7986 32.25 40.3152 32.6167 39.8152 32.95C39.3486 33.2833 38.6986 33.45 37.8652 33.45C36.9652 33.45 36.2486 33.2833 35.7152 32.95C35.2152 32.6167 34.8486 32.25 34.6152 31.85C34.4152 31.4167 34.2819 31.0833 34.2152 30.85C33.8152 31.15 33.3986 31.55 32.9652 32.05C32.5652 32.5167 31.9819 32.95 31.2152 33.35C30.4486 33.7167 29.3486 33.9 27.9152 33.9C27.1152 33.9 26.3819 33.7167 25.7152 33.35C25.0819 32.95 24.7652 32.1 24.7652 30.8C24.7652 30.4333 24.7819 30.05 24.8152 29.65C24.8819 29.2167 24.9819 28.75 25.1152 28.25C25.5152 26.6833 25.9819 25.45 26.5152 24.55C27.0486 23.65 27.8486 22.9833 28.9152 22.55C29.5819 22.2833 30.3986 22.0333 31.3652 21.8C32.3319 21.5667 33.1819 21.3667 33.9152 21.2C34.1486 21.1333 34.3486 20.9167 34.5152 20.55C34.7152 20.15 34.9319 19.7833 35.1652 19.45C35.2986 19.2833 35.4486 19.15 35.6152 19.05C35.7819 18.9167 35.9652 18.85 36.1652 18.85C36.3319 18.85 36.5486 18.9333 36.8152 19.1C37.0486 19.2667 37.1986 19.5833 37.2652 20.05C37.3652 20.5167 37.4152 20.95 37.4152 21.35C37.3819 21.55 37.2986 21.8 37.1652 22.1C37.0652 22.3667 36.9819 22.6667 36.9152 23C36.8486 23.4333 36.6819 24.05 36.4152 24.85C36.1486 25.65 36.0152 26.3167 36.0152 26.85C36.0152 27.3167 35.9819 27.9 35.9152 28.6C35.8486 29.2667 35.8486 29.7333 35.9152 30C36.2819 30.8 36.7986 31.3333 37.4652 31.6C38.1319 31.8333 38.7152 31.9 39.2152 31.8C39.5819 31.7333 39.9986 31.5167 40.4652 31.15C40.9319 30.7833 41.3319 30.4333 41.6652 30.1ZM33.5652 24.4C33.4986 24.1333 33.3319 23.85 33.0652 23.55C32.8319 23.25 32.5319 23.1 32.1652 23.1C32.0986 23.1 31.9652 23.1333 31.7652 23.2C31.1986 23.4 30.5986 23.7833 29.9652 24.35C29.3319 24.8833 28.7819 25.5833 28.3152 26.45C27.8486 27.3167 27.5819 28.3333 27.5152 29.5C27.5152 29.8333 27.6152 30.2667 27.8152 30.8C28.0486 31.3333 28.3486 31.7833 28.7152 32.15C29.0819 32.5167 29.4486 32.6167 29.8152 32.45C30.6152 32.1167 31.2819 31.65 31.8152 31.05C32.3819 30.4167 32.8486 29.65 33.2152 28.75C33.3819 28.3167 33.4986 27.8667 33.5652 27.4C33.6652 26.9 33.7152 26.4333 33.7152 26C33.7152 25.6 33.6986 25.2667 33.6652 25C33.6319 24.7 33.5986 24.5 33.5652 24.4ZM57.2633 31.35C56.6633 32.2167 55.9966 32.8833 55.2633 33.35C54.5633 33.7833 53.8966 34 53.2633 34C52.6299 34 52.1133 33.7833 51.7133 33.35C51.2466 32.55 50.9133 31.7333 50.7133 30.9C50.5466 30.0333 50.3966 28.9167 50.2633 27.55C50.1633 26.1833 49.9466 24.35 49.6133 22.05C49.6133 22.05 49.5133 21.9333 49.3133 21.7C49.1133 21.4333 48.8799 21.3 48.6133 21.3C48.4466 21.3 48.2633 21.4 48.0633 21.6C47.8633 21.7667 47.6633 22.1 47.4633 22.6C46.9633 23.8667 46.5633 25.1833 46.2633 26.55C45.9966 27.9167 45.7466 29.1833 45.5133 30.35C45.2799 31.5167 44.9966 32.4333 44.6633 33.1C44.4299 33.5667 44.1299 33.8 43.7633 33.8C43.4633 33.8 43.1799 33.65 42.9133 33.35C42.9133 33.35 42.9299 33.05 42.9633 32.45C43.0299 31.8167 43.1133 31.05 43.2133 30.15C43.3133 29.2167 43.3966 28.3167 43.4633 27.45C43.3966 27.4833 43.2133 27.6833 42.9133 28.05C42.6133 28.3833 42.2799 28.7167 41.9133 29.05C41.5466 29.35 41.2133 29.4833 40.9133 29.45C40.7133 29.2167 40.8133 28.8667 41.2133 28.4C41.6133 27.9 42.0633 27.35 42.5633 26.75C43.0966 26.1167 43.4633 25.5 43.6633 24.9C44.1299 23.5 44.4466 22 44.6133 20.4C44.8133 18.8 45.0299 17.2833 45.2633 15.85C45.7633 12.75 46.2633 10.0333 46.7633 7.7C47.2966 5.36667 47.9299 3.56667 48.6633 2.3C49.3966 0.999999 50.3299 0.349998 51.4633 0.349998C51.9299 0.349998 52.2966 0.533331 52.5633 0.899997C52.8299 1.23333 52.9633 1.86667 52.9633 2.8C52.9633 2.93333 52.9633 3.1 52.9633 3.3C52.9633 3.5 52.9466 3.7 52.9133 3.9C52.7133 6.13333 52.2966 8.6 51.6633 11.3C51.0299 13.9667 49.8966 16.8667 48.2633 20C48.6299 19.9 48.9966 19.85 49.3633 19.85C50.0299 19.85 50.6466 19.9667 51.2133 20.2C51.7799 20.4 52.1633 20.6333 52.3633 20.9C52.5633 21.1667 52.6966 21.4667 52.7633 21.8C52.8299 22.1333 52.8633 22.5167 52.8633 22.95C52.8633 23.7833 52.7633 24.8167 52.5633 26.05C52.3966 27.2833 52.3133 28.7333 52.3133 30.4C52.3133 30.9667 52.4966 31.4 52.8633 31.7C53.2633 31.9667 53.7299 32.1 54.2633 32.1C54.7299 32.1 55.1799 32 55.6133 31.8C56.0466 31.6 56.3966 31.3167 56.6633 30.95C56.6966 30.8833 56.7966 30.85 56.9633 30.85C57.0633 30.85 57.1466 30.9 57.2133 31C57.3133 31.0667 57.3299 31.1833 57.2633 31.35ZM51.7133 2.4C51.7133 2.1 51.6466 1.95 51.5133 1.95C51.3133 1.95 50.9966 2.23333 50.5633 2.8C50.1633 3.33333 49.7633 4.03333 49.3633 4.9C48.9633 5.76666 48.6299 6.68333 48.3633 7.65C47.9633 9.18333 47.6299 10.5667 47.3633 11.8C47.0966 13 46.8799 14.4333 46.7133 16.1C46.6799 16.6 46.6466 17.1667 46.6133 17.8C46.5799 18.4 46.5466 18.9167 46.5133 19.35C46.5133 19.7833 46.5133 20 46.5133 20C47.0133 19.2 47.5466 18.3833 48.1133 17.55C48.6799 16.7167 49.1466 15.7333 49.5133 14.6C50.0133 13.1333 50.4133 11.6167 50.7133 10.05C51.0466 8.45 51.2966 6.96667 51.4633 5.6C51.6299 4.23333 51.7133 3.16667 51.7133 2.4ZM67.1848 24.9C67.1848 25.6667 67.1181 26.2333 66.9848 26.6C66.8848 26.9667 66.7348 27.2667 66.5348 27.5C66.3681 27.7333 66.1848 28 65.9848 28.3C65.7848 28.6 65.6181 29.05 65.4848 29.65C65.3848 30.2167 65.3348 31.05 65.3348 32.15C65.3348 32.5833 65.5014 32.9333 65.8348 33.2C66.1681 33.4667 66.5514 33.6 66.9848 33.6C67.1848 33.6 67.2848 33.6667 67.2848 33.8C67.2848 33.9667 67.1514 34.1667 66.8848 34.4C66.6514 34.6667 66.4348 34.8 66.2348 34.8C65.5014 34.8 64.9681 34.5167 64.6348 33.95C64.3014 33.35 64.1348 32.7167 64.1348 32.05C64.1348 30.95 64.1681 30.0833 64.2348 29.45C64.3014 28.7833 64.3681 28.1667 64.4348 27.6C64.5014 27 64.5181 26.2667 64.4848 25.4C64.4514 24.8 64.3681 24.3333 64.2348 24C64.1014 23.6333 63.7514 23.45 63.1848 23.45C62.8848 23.45 62.6681 23.5 62.5348 23.6C62.4348 23.7 62.3014 23.8667 62.1348 24.1C61.7681 24.6333 61.4514 25.3833 61.1848 26.35C60.9514 27.2833 60.7514 28.2833 60.5848 29.35C60.4514 30.3833 60.3181 31.3167 60.1848 32.15C60.0848 32.95 59.9848 33.4833 59.8848 33.75C59.7848 33.9833 59.6514 34.15 59.4848 34.25C59.3514 34.35 59.2014 34.4 59.0348 34.4C58.9014 34.4 58.7681 34.3667 58.6348 34.3C58.5348 34.2667 58.4514 34.2333 58.3848 34.2C58.2181 34.1 58.1348 33.9333 58.1348 33.7C58.1348 33.4667 58.1848 33.2 58.2848 32.9C58.4181 32.5667 58.5181 32.2667 58.5848 32C58.6514 31.7333 58.7514 31.2667 58.8848 30.6C59.0514 29.9 59.2181 29.1833 59.3848 28.45C59.5514 27.6833 59.6848 27.0333 59.7848 26.5C59.9181 25.9333 59.9848 25.65 59.9848 25.65C59.8181 25.65 59.6514 25.6667 59.4848 25.7C59.3181 25.7 59.1514 25.7 58.9848 25.7C58.4848 25.7 58.2348 25.5 58.2348 25.1C58.2348 24.8333 58.3348 24.4333 58.5348 23.9C58.7348 23.3667 59.1014 22.6667 59.6348 21.8C59.8014 21.5333 60.1348 21.2 60.6348 20.8C61.1348 20.4 61.5514 20.2333 61.8848 20.3C62.0181 20.2333 62.1348 20.2 62.2348 20.2C62.3348 20.2 62.4181 20.2 62.4848 20.2C62.8514 20.2 63.0514 20.3333 63.0848 20.6C63.1514 20.8333 63.1681 21.0833 63.1348 21.35C63.1014 21.5833 63.1181 21.6833 63.1848 21.65C63.6514 21.45 64.1181 21.35 64.5848 21.35C65.2848 21.35 65.8848 21.6333 66.3848 22.2C66.9181 22.7333 67.1848 23.6333 67.1848 24.9ZM87.3684 30.1C87.4684 30 87.6017 29.95 87.7684 29.95C88.0017 29.95 88.1184 30.0667 88.1184 30.3C88.1184 30.4333 88.035 30.6333 87.8684 30.9C87.735 31.1667 87.435 31.4833 86.9684 31.85C86.5017 32.25 86.0184 32.6167 85.5184 32.95C85.0517 33.2833 84.4017 33.45 83.5684 33.45C82.6684 33.45 81.9517 33.2833 81.4184 32.95C80.9184 32.6167 80.5517 32.25 80.3184 31.85C80.1184 31.4167 79.985 31.0833 79.9184 30.85C79.5184 31.15 79.1017 31.55 78.6684 32.05C78.2684 32.5167 77.685 32.95 76.9184 33.35C76.1517 33.7167 75.0517 33.9 73.6184 33.9C72.8184 33.9 72.085 33.7167 71.4184 33.35C70.785 32.95 70.4684 32.1 70.4684 30.8C70.4684 30.4333 70.485 30.05 70.5184 29.65C70.585 29.2167 70.685 28.75 70.8184 28.25C71.2184 26.6833 71.685 25.45 72.2184 24.55C72.7517 23.65 73.5517 22.9833 74.6184 22.55C75.285 22.2833 76.1017 22.0333 77.0684 21.8C78.035 21.5667 78.885 21.3667 79.6184 21.2C79.8517 21.1333 80.0517 20.9167 80.2184 20.55C80.4184 20.15 80.635 19.7833 80.8684 19.45C81.0017 19.2833 81.1517 19.15 81.3184 19.05C81.485 18.9167 81.6684 18.85 81.8684 18.85C82.035 18.85 82.2517 18.9333 82.5184 19.1C82.7517 19.2667 82.9017 19.5833 82.9684 20.05C83.0684 20.5167 83.1184 20.95 83.1184 21.35C83.085 21.55 83.0017 21.8 82.8684 22.1C82.7684 22.3667 82.685 22.6667 82.6184 23C82.5517 23.4333 82.385 24.05 82.1184 24.85C81.8517 25.65 81.7184 26.3167 81.7184 26.85C81.7184 27.3167 81.685 27.9 81.6184 28.6C81.5517 29.2667 81.5517 29.7333 81.6184 30C81.985 30.8 82.5017 31.3333 83.1684 31.6C83.835 31.8333 84.4184 31.9 84.9184 31.8C85.285 31.7333 85.7017 31.5167 86.1684 31.15C86.635 30.7833 87.035 30.4333 87.3684 30.1ZM79.2684 24.4C79.2017 24.1333 79.035 23.85 78.7684 23.55C78.535 23.25 78.235 23.1 77.8684 23.1C77.8017 23.1 77.6684 23.1333 77.4684 23.2C76.9017 23.4 76.3017 23.7833 75.6684 24.35C75.035 24.8833 74.485 25.5833 74.0184 26.45C73.5517 27.3167 73.285 28.3333 73.2184 29.5C73.2184 29.8333 73.3184 30.2667 73.5184 30.8C73.7517 31.3333 74.0517 31.7833 74.4184 32.15C74.785 32.5167 75.1517 32.6167 75.5184 32.45C76.3184 32.1167 76.985 31.65 77.5184 31.05C78.085 30.4167 78.5517 29.65 78.9184 28.75C79.085 28.3167 79.2017 27.8667 79.2684 27.4C79.3684 26.9 79.4184 26.4333 79.4184 26C79.4184 25.6 79.4017 25.2667 79.3684 25C79.335 24.7 79.3017 24.5 79.2684 24.4ZM98.8164 30.6C98.3831 31.0333 97.9997 31.4667 97.6664 31.9C97.3331 32.3333 96.5997 32.8333 95.4664 33.4C95.3331 33.6 95.0331 33.9 94.5664 34.3C94.1331 34.7 93.2664 34.9333 91.9664 35C91.0997 35.0333 90.3997 34.8167 89.8664 34.35C89.3664 33.9167 88.9831 33.3833 88.7164 32.75C88.4497 32.1167 88.2164 31.5333 88.0164 31C87.9831 31.0333 87.8331 31.1667 87.5664 31.4C87.2997 31.6333 87.0331 31.8667 86.7664 32.1C86.4664 32.3333 86.2831 32.4833 86.2164 32.55C86.1831 32.5833 86.1164 32.6 86.0164 32.6C85.8497 32.6 85.7164 32.5167 85.6164 32.35C85.4831 32.15 85.4831 31.9833 85.6164 31.85C86.2497 31.2167 86.7331 30.7333 87.0664 30.4C87.3997 30.0333 87.6997 29.6833 87.9664 29.35C88.2331 29.0167 88.5497 28.6 88.9164 28.1C89.4831 27.2333 90.0831 26.4667 90.7164 25.8C91.3831 25.1 91.7997 24.5833 91.9664 24.25C91.9997 24.2167 92.0164 24.15 92.0164 24.05C92.0164 23.95 91.9664 23.8667 91.8664 23.8C91.7997 23.7333 91.7497 23.65 91.7164 23.55C91.5831 23.0167 91.5164 22.5167 91.5164 22.05C91.5164 21.3167 91.7997 20.45 92.3664 19.45C92.5997 19.2833 92.9164 19.15 93.3164 19.05C93.7164 18.9167 94.0331 18.9 94.2664 19C94.5331 19.1333 94.6997 19.2833 94.7664 19.45C94.8664 19.6167 94.9497 19.8333 95.0164 20.1C95.0164 20.1333 95.0164 20.1667 95.0164 20.2C95.0497 20.2333 95.0664 20.2833 95.0664 20.35C95.0664 20.55 95.0331 20.7667 94.9664 21C94.8997 21.2333 94.8164 21.4833 94.7164 21.75C94.7164 21.8833 94.5497 22.1333 94.2164 22.5C93.9164 22.8667 93.8164 23.1 93.9164 23.2C94.1164 23.6333 94.4497 24.2 94.9164 24.9C95.4831 25.7 95.8664 26.4333 96.0664 27.1C96.2997 27.7667 96.4164 28.3667 96.4164 28.9C96.4164 29.5333 96.3164 30.0833 96.1164 30.55C95.9497 31.0167 95.8164 31.4167 95.7164 31.75C96.0164 31.7833 96.3664 31.6333 96.7664 31.3C97.1664 30.9333 97.5497 30.5333 97.9164 30.1C98.3164 29.6333 98.6164 29.3 98.8164 29.1C99.0164 28.9 99.1664 28.8 99.2664 28.8C99.4331 28.8 99.4331 29.05 99.2664 29.55C99.1331 30.05 98.9831 30.4 98.8164 30.6ZM93.9664 21C93.9664 20.8667 93.9497 20.7167 93.9164 20.55C93.8831 20.3833 93.7831 20.2833 93.6164 20.25H93.5664C93.3997 20.25 93.2664 20.3333 93.1664 20.5C93.0664 20.6333 92.9831 20.7667 92.9164 20.9C92.8164 21.1667 92.7164 21.4 92.6164 21.6C92.5497 21.7667 92.5831 21.9333 92.7164 22.1C92.8497 22.1667 93.0831 22.0333 93.4164 21.7C93.7831 21.3333 93.9664 21.1 93.9664 21ZM94.0664 29C94.0664 28.5 93.9664 27.9667 93.7664 27.4C93.5997 26.8 93.3997 26.2667 93.1664 25.8C92.9664 25.3333 92.8164 25.0333 92.7164 24.9C92.7164 24.9 92.5164 25.15 92.1164 25.65C91.7164 26.1167 91.2831 26.6333 90.8164 27.2C90.5164 27.5333 90.2164 27.9667 89.9164 28.5C89.6164 29.0333 89.4331 29.5 89.3664 29.9C89.3664 29.9 89.5164 30.1 89.8164 30.5C90.1164 30.8667 90.4831 31.2167 90.9164 31.55C91.3831 31.8833 91.8331 32 92.2664 31.9C92.9331 31.7333 93.3997 31.35 93.6664 30.75C93.9331 30.1167 94.0664 29.5333 94.0664 29ZM92.3664 32.9H91.9164C91.7831 32.9 91.6331 32.9 91.4664 32.9C91.2997 32.8667 91.1331 32.8333 90.9664 32.8C90.7997 32.7333 90.5497 32.6 90.2164 32.4C89.8831 32.2 89.7164 32.1 89.7164 32.1C89.7164 32.1 89.6997 32.1333 89.6664 32.2C89.6664 32.2667 89.6664 32.35 89.6664 32.45C89.6664 32.5833 89.6831 32.7333 89.7164 32.9C89.7831 33.0667 89.8997 33.2333 90.0664 33.4C90.3331 33.6 90.5664 33.7667 90.7664 33.9C90.9664 34 91.2331 34 91.5664 33.9C91.7997 33.8333 91.9831 33.65 92.1164 33.35C92.2831 33.05 92.3664 32.9 92.3664 32.9ZM110.812 19.2C111.012 19.5 111.112 19.8333 111.112 20.2C111.112 20.9333 110.862 21.8667 110.362 23C109.895 24.1 109.412 25.3167 108.912 26.65C108.412 27.9833 108.145 29.35 108.112 30.75C108.079 32.55 108.045 34.4 108.012 36.3C108.012 38.2 107.795 40.05 107.362 41.85C106.962 43.6833 106.112 45.35 104.812 46.85C103.745 48.0833 102.612 48.9167 101.412 49.35C100.245 49.8167 99.0121 50.05 97.7121 50.05C97.4788 50.05 97.2288 50.0333 96.9621 50C96.6954 50 96.4288 49.9833 96.1621 49.95C95.5288 49.8833 94.8454 49.5833 94.1121 49.05C93.3788 48.5167 92.7454 47.75 92.2121 46.75C91.6788 45.75 91.4121 44.5333 91.4121 43.1C91.4121 42.6 91.4621 42.05 91.5621 41.45C91.7288 40.45 91.9788 39.4333 92.3121 38.4C92.6454 37.4 93.1288 36.5667 93.7621 35.9C94.3954 35.2333 95.2454 34.9 96.3121 34.9C97.1788 34.9 97.9954 35.2167 98.7621 35.85C99.5288 36.5167 100.162 37.2667 100.662 38.1C101.195 38.9333 101.545 39.6667 101.712 40.3C101.812 40.7 101.895 41.1167 101.962 41.55C102.062 42.0167 102.112 42.4667 102.112 42.9C102.112 43.6667 101.962 44.2 101.662 44.5C101.329 44.8667 100.912 45.05 100.412 45.05C100.045 45.05 99.6121 44.95 99.1121 44.75C98.7788 44.6833 98.3788 44.45 97.9121 44.05C97.4788 43.6833 97.2621 43.2 97.2621 42.6C97.2621 42.2 97.3454 41.8167 97.5121 41.45C97.7121 41.0833 97.8788 40.8333 98.0121 40.7C98.2788 40.5 98.4621 40.4 98.5621 40.4C98.7288 40.4 98.8454 40.6167 98.9121 41.05V41.1C98.9121 41.2333 98.8454 41.3667 98.7121 41.5C98.5788 41.6333 98.5288 41.8667 98.5621 42.2C98.6288 42.6667 98.8121 43 99.1121 43.2C99.4121 43.4333 99.6288 43.55 99.7621 43.55C100.195 43.55 100.412 43.1167 100.412 42.25C100.412 41.55 100.212 40.7 99.8121 39.7C99.4788 38.8667 99.0121 38.15 98.4121 37.55C97.8121 36.95 97.1121 36.5833 96.3121 36.45C95.9121 36.3833 95.4788 36.4833 95.0121 36.75C94.5121 37.0167 94.0788 37.5333 93.7121 38.3C93.4788 38.7333 93.3288 39.2167 93.2621 39.75C93.1621 40.2833 93.1121 40.8333 93.1121 41.4C93.1121 42.0333 93.1621 42.6333 93.2621 43.2C93.3288 45.0333 93.8121 46.3667 94.7121 47.2C95.5788 48.0667 96.7288 48.5 98.1621 48.5C98.3621 48.5 98.5621 48.4833 98.7621 48.45C98.9954 48.45 99.2288 48.4333 99.4621 48.4C100.462 48.2667 101.429 47.7667 102.362 46.9C103.295 46.0333 104.079 45.0333 104.712 43.9C105.245 42.9333 105.579 42.1333 105.712 41.5C105.879 40.8667 105.962 40.1 105.962 39.2C105.962 38.6333 105.945 38 105.912 37.3C105.912 36.6 105.912 35.7333 105.912 34.7C105.912 34.0333 105.912 33.2833 105.912 32.45C105.945 31.6167 105.979 30.6833 106.012 29.65C104.245 30.5833 102.795 31.05 101.662 31.05C100.762 31.05 99.9288 30.7667 99.1621 30.2C98.8954 30 98.6954 29.75 98.5621 29.45C98.4621 29.1167 98.4121 28.7667 98.4121 28.4C98.4121 27.6 98.6121 26.7167 99.0121 25.75C99.4121 24.75 99.8788 23.8333 100.412 23C100.945 22.1333 101.412 21.5 101.812 21.1C102.045 20.7 102.312 20.5 102.612 20.5C102.879 20.5 103.095 20.6667 103.262 21C103.429 21.3 103.429 21.5167 103.262 21.65C102.829 22.0167 102.462 22.4667 102.162 23C101.862 23.5333 101.579 24.0833 101.312 24.65C101.079 25.2167 100.962 25.95 100.962 26.85C100.962 27.1833 100.979 27.5167 101.012 27.85C101.079 28.1833 101.179 28.4333 101.312 28.6C101.479 28.8 101.779 28.9 102.212 28.9C102.612 28.9 103.062 28.8167 103.562 28.65C104.062 28.45 104.479 28.2 104.812 27.9C105.612 27.1667 106.179 26.4 106.512 25.6C106.879 24.7667 107.162 23.9667 107.362 23.2C107.462 22.8 107.579 22.3333 107.712 21.8C107.845 21.2333 107.912 20.6667 107.912 20.1C107.912 19.9 108.129 19.6333 108.562 19.3C108.995 18.9333 109.445 18.75 109.912 18.75C110.279 18.75 110.579 18.9 110.812 19.2Z" fill="black"/>
</svg>
